<svg xmlns="http://www.w3.org/2000/svg" viewBox="0 0 64 64">
  <defs>
    <linearGradient id="bag-fill" x1="12" y1="10" x2="52" y2="54" gradientUnits="userSpaceOnUse">
      <stop offset="0" stop-color="#fcd34d" />
      <stop offset="1" stop-color="#d97706" />
    </linearGradient>
  </defs>
  <rect width="64" height="64" rx="16" fill="#f8f5ef" />
  <path
    d="M24 18c0-4.418 3.582-8 8-8s8 3.582 8 8v2h4c4.418 0 8 3.582 8 8v18c0 4.418-3.582 8-8 8H20c-4.418 0-8-3.582-8-8V28c0-4.418 3.582-8 8-8h4v-2Zm4 2h8v-2a4 4 0 1 0-8 0v2Z"
    fill="url(#bag-fill)"
  />
  <path
    d="M23 33h18a3 3 0 0 1 3 3v3a7 7 0 0 1-7 7H27a7 7 0 0 1-7-7v-3a3 3 0 0 1 3-3Z"
    fill="#1f2a44"
    opacity=".16"
  />
  <rect x="22" y="28" width="20" height="6" rx="3" fill="#1f2a44" />
</svg>
